<!--?xml version="1.0" standalone="no"?-->              <svg id="sw-js-blob-svg" viewBox="0 0 100 100" xmlns="http://www.w3.org/2000/svg">                    <defs>                         <linearGradient id="sw-gradient" x1="0" x2="1" y1="1" y2="0">                            <stop id="stop1" stop-color="rgba(208.45, 0, 0, 1)" offset="0%"></stop>                            <stop id="stop2" stop-color="rgba(65.013, 65.013, 65.013, 1)" offset="100%"></stop>                        </linearGradient>                    </defs>                <path fill="url(#sw-gradient)" d="M27.6,-30.9C34.4,-27.1,37.8,-17.2,38.7,-7.5C39.6,2.2,38.1,11.7,33.9,20C29.6,28.3,22.6,35.5,14.4,37.5C6.3,39.6,-2.9,36.5,-11.5,32.8C-20.1,29.2,-28.1,25,-34,18C-39.9,11.1,-43.8,1.3,-41.4,-6.5C-39.1,-14.3,-30.4,-20.1,-22.5,-23.8C-14.5,-27.4,-7.3,-28.8,1.5,-30.7C10.4,-32.5,20.7,-34.8,27.6,-30.9Z" width="100%" height="100%" transform="translate(50 50)" stroke-width="0" style="transition: all 0.3s ease 0s;"></path>              </svg>